# xmcd CD database file
#
# Track frame offsets:
#	150
#	24212
#	43022
#	61907
#	89030
#	103897
#	140122
#	161355
#	183530
#	211050
#	226820
#
# Disc length: 3373 seconds
#
# Revision: 0
# Processed by: cddbd v1.4PL0 Copyright (c) Steve Scherf et al.
# Submitted via: CDex 1.51
#
DISCID=920d2b0b
DTITLE=Pops Carter and the Funk Monsters - Live at Club Dada
DYEAR=1993
DGENRE=Blues
TTITLE0=Every Day I've the Blues
TTITLE1=Lord Knows I've Tried
TTITLE2=Sweet Home Chicago
TTITLE3=Stormy Monday Blues
TTITLE4=Kansas City
TTITLE5=Change of Love
TTITLE6=Woke Up The Morning
TTITLE7=Love Her With A Feeling
TTITLE8=Just Can't Let You Go
TTITLE9=Crosscut Saw
TTITLE10=As The Years Go Passing By
EXTD=YEAR: 1993
EXTT0=
EXTT1=
EXTT2=
EXTT3=
EXTT4=
EXTT5=
EXTT6=
EXTT7=
EXTT8=
EXTT9=
EXTT10=
PLAYORDER=
